<svg width="192" height="56" viewBox="0 0 192 56" fill="none" xmlns="http://www.w3.org/2000/svg">
<path d="M9.62173 6.76607H1.92435C0.861559 6.76607 0 7.82344 0 9.12776V51.6383C0 52.9426 0.861559 54 1.92435 54H9.62173C10.6845 54 11.5461 52.9426 11.5461 51.6383V9.12776C11.5461 7.82344 10.6845 6.76607 9.62173 6.76607Z" fill="#4F46E5"/>
<path d="M23.2671 0.468201H15.5697C14.5069 0.468201 13.6454 1.5334 13.6454 2.84739V51.6208C13.6454 52.9348 14.5069 54 15.5697 54H23.2671C24.3299 54 25.1915 52.9348 25.1915 51.6208V2.84739C25.1915 1.5334 24.3299 0.468201 23.2671 0.468201Z" fill="#6366F1"/>
<path d="M36.9124 13.0639H29.2151C28.1523 13.0639 27.2907 14.1112 27.2907 15.4031V51.6608C27.2907 52.9527 28.1523 54 29.2151 54H36.9124C37.9752 54 38.8368 52.9527 38.8368 51.6608V15.4031C38.8368 14.1112 37.9752 13.0639 36.9124 13.0639Z" fill="#818CF8"/>
<path d="M54.8438 35.4688L59.3125 35.4062C59.1146 37.0833 58.5469 38.5208 57.6094 39.7188C56.6823 40.9062 55.5156 41.8125 54.1094 42.4375C52.7031 43.0521 51.1771 43.3438 49.5312 43.3125C48.0104 43.2812 46.7292 42.9583 45.6875 42.3438C44.6458 41.7188 43.8281 40.8854 43.2344 39.8438C42.6406 38.8021 42.25 37.6406 42.0625 36.3594C41.875 35.0781 41.8646 33.7656 42.0312 32.4219L42.25 30.8438C42.4583 29.4271 42.8385 28.0573 43.3906 26.7344C43.9531 25.4115 44.6875 24.2344 45.5938 23.2031C46.5 22.1719 47.5729 21.3594 48.8125 20.7656C50.0521 20.1719 51.4583 19.8906 53.0312 19.9219C54.6771 19.9531 56.0677 20.3073 57.2031 20.9844C58.349 21.651 59.2292 22.5833 59.8438 23.7812C60.4688 24.9688 60.8177 26.3594 60.8906 27.9531L56.3438 27.9375C56.3542 27.0938 56.25 26.3542 56.0312 25.7188C55.8229 25.0729 55.4583 24.5729 54.9375 24.2188C54.4167 23.8542 53.6979 23.6562 52.7812 23.625C51.7812 23.5938 50.9323 23.7917 50.2344 24.2188C49.5365 24.6458 48.9583 25.2188 48.5 25.9375C48.0521 26.6562 47.6979 27.4427 47.4375 28.2969C47.1875 29.151 47 29.9896 46.875 30.8125L46.6562 32.4375C46.5729 33.1146 46.5156 33.8646 46.4844 34.6875C46.4531 35.5 46.5208 36.276 46.6875 37.0156C46.8542 37.7552 47.1771 38.3698 47.6562 38.8594C48.1354 39.3385 48.849 39.5938 49.7969 39.625C50.7344 39.6562 51.5417 39.5104 52.2188 39.1875C52.9062 38.8646 53.4635 38.3854 53.8906 37.75C54.3281 37.1146 54.6458 36.3542 54.8438 35.4688ZM72.1875 26.0938L69.25 43H64.8438L67.7812 26.0938H72.1875ZM77.4688 26.0938L76.8594 29.5781H61.9688L62.5781 26.0938H77.4688ZM83.4375 29.5938L79.9844 49.5H75.5781L79.6406 26.0938H83.7031L83.4375 29.5938ZM92.9688 34.2656L92.9219 34.5938C92.7969 35.6146 92.5573 36.6458 92.2031 37.6875C91.8594 38.7292 91.3854 39.6823 90.7812 40.5469C90.1771 41.401 89.4323 42.0885 88.5469 42.6094C87.6615 43.1198 86.6198 43.3594 85.4219 43.3281C84.3698 43.2969 83.4948 43.0208 82.7969 42.5C82.099 41.9792 81.5521 41.3125 81.1562 40.5C80.7604 39.6771 80.4844 38.7917 80.3281 37.8438C80.1719 36.8958 80.1094 35.9896 80.1406 35.125L80.25 34.25C80.4062 33.3021 80.6771 32.3281 81.0625 31.3281C81.4479 30.3177 81.9479 29.3906 82.5625 28.5469C83.1771 27.6927 83.9115 27.0104 84.7656 26.5C85.6198 25.9792 86.6042 25.7344 87.7188 25.7656C88.875 25.7969 89.8177 26.0729 90.5469 26.5938C91.2865 27.1146 91.849 27.7917 92.2344 28.625C92.6198 29.4583 92.8594 30.3698 92.9531 31.3594C93.0573 32.3385 93.0625 33.3073 92.9688 34.2656ZM88.5312 34.5781L88.5781 34.25C88.6198 33.7917 88.6406 33.2865 88.6406 32.7344C88.6406 32.1719 88.5781 31.6354 88.4531 31.125C88.3281 30.6146 88.099 30.1875 87.7656 29.8438C87.4323 29.5 86.9531 29.3177 86.3281 29.2969C85.6927 29.2656 85.1354 29.3646 84.6562 29.5938C84.1771 29.8229 83.7708 30.1458 83.4375 30.5625C83.1146 30.9688 82.849 31.4323 82.6406 31.9531C82.4323 32.474 82.2812 33.0104 82.1875 33.5625L81.875 35.75C81.8229 36.3854 81.8646 37.0156 82 37.6406C82.1354 38.2552 82.401 38.7656 82.7969 39.1719C83.2031 39.5781 83.7865 39.7917 84.5469 39.8125C85.2344 39.8229 85.8177 39.6667 86.2969 39.3438C86.776 39.0208 87.1667 38.5938 87.4688 38.0625C87.7812 37.5208 88.0208 36.9427 88.1875 36.3281C88.3542 35.7135 88.4688 35.1302 88.5312 34.5781ZM94.9531 34.8125L95 34.4844C95.125 33.2865 95.4115 32.1615 95.8594 31.1094C96.3177 30.0469 96.9219 29.1146 97.6719 28.3125C98.4323 27.5 99.3229 26.8698 100.344 26.4219C101.375 25.9635 102.531 25.75 103.812 25.7812C105.031 25.8021 106.083 26.0469 106.969 26.5156C107.854 26.9844 108.578 27.6146 109.141 28.4062C109.714 29.1979 110.115 30.1042 110.344 31.125C110.583 32.1458 110.651 33.224 110.547 34.3594L110.516 34.7031C110.38 35.8906 110.078 37.0104 109.609 38.0625C109.151 39.1042 108.542 40.026 107.781 40.8281C107.031 41.6198 106.141 42.2396 105.109 42.6875C104.078 43.1354 102.932 43.3438 101.672 43.3125C100.474 43.2917 99.4271 43.0521 98.5312 42.5938C97.6354 42.125 96.9062 41.5 96.3438 40.7188C95.7812 39.9271 95.3854 39.026 95.1562 38.0156C94.9271 37.0052 94.8594 35.9375 94.9531 34.8125ZM99.3906 34.4844L99.3594 34.8281C99.3073 35.3281 99.2917 35.8646 99.3125 36.4375C99.3333 37 99.4219 37.5365 99.5781 38.0469C99.7448 38.5573 100.016 38.974 100.391 39.2969C100.766 39.6198 101.281 39.7917 101.938 39.8125C102.635 39.8333 103.234 39.6927 103.734 39.3906C104.234 39.0885 104.646 38.6823 104.969 38.1719C105.292 37.651 105.547 37.0885 105.734 36.4844C105.922 35.8698 106.047 35.2708 106.109 34.6875L106.141 34.3594C106.182 33.8594 106.193 33.3229 106.172 32.75C106.161 32.1667 106.073 31.6198 105.906 31.1094C105.74 30.5885 105.469 30.1615 105.094 29.8281C104.719 29.4948 104.203 29.3177 103.547 29.2969C102.849 29.2656 102.25 29.4115 101.75 29.7344C101.25 30.0469 100.839 30.4635 100.516 30.9844C100.193 31.5052 99.9375 32.0729 99.75 32.6875C99.5729 33.3021 99.4531 33.901 99.3906 34.4844ZM117.234 36.4375L124.391 26.0938H128.906L125.969 43H121.562L123.375 32.6406L116.219 43H111.703L114.641 26.0938H119.031L117.234 36.4375ZM125.016 19.2969L128.109 19.2812C128.057 20.2812 127.771 21.1302 127.25 21.8281C126.74 22.526 126.073 23.0521 125.25 23.4062C124.427 23.75 123.531 23.9115 122.562 23.8906C121.156 23.8698 119.984 23.4583 119.047 22.6562C118.109 21.8542 117.635 20.724 117.625 19.2656L120.719 19.2969C120.708 19.9219 120.844 20.4271 121.125 20.8125C121.417 21.1979 121.901 21.3958 122.578 21.4062C123.255 21.4167 123.802 21.2292 124.219 20.8438C124.635 20.4583 124.901 19.9427 125.016 19.2969Z" fill="black"/>
<path d="M151.547 20.25L147.594 43H143.031L146.328 23.9219H137.484L134.172 43H129.609L133.547 20.25H151.547ZM158 29.5938L154.547 49.5H150.141L154.203 26.0938H158.266L158 29.5938ZM167.531 34.2656L167.484 34.5938C167.359 35.6146 167.12 36.6458 166.766 37.6875C166.422 38.7292 165.948 39.6823 165.344 40.5469C164.74 41.401 163.995 42.0885 163.109 42.6094C162.224 43.1198 161.182 43.3594 159.984 43.3281C158.932 43.2969 158.057 43.0208 157.359 42.5C156.661 41.9792 156.115 41.3125 155.719 40.5C155.323 39.6771 155.047 38.7917 154.891 37.8438C154.734 36.8958 154.672 35.9896 154.703 35.125L154.812 34.25C154.969 33.3021 155.24 32.3281 155.625 31.3281C156.01 30.3177 156.51 29.3906 157.125 28.5469C157.74 27.6927 158.474 27.0104 159.328 26.5C160.182 25.9792 161.167 25.7344 162.281 25.7656C163.438 25.7969 164.38 26.0729 165.109 26.5938C165.849 27.1146 166.411 27.7917 166.797 28.625C167.182 29.4583 167.422 30.3698 167.516 31.3594C167.62 32.3385 167.625 33.3073 167.531 34.2656ZM163.094 34.5781L163.141 34.25C163.182 33.7917 163.203 33.2865 163.203 32.7344C163.203 32.1719 163.141 31.6354 163.016 31.125C162.891 30.6146 162.661 30.1875 162.328 29.8438C161.995 29.5 161.516 29.3177 160.891 29.2969C160.255 29.2656 159.698 29.3646 159.219 29.5938C158.74 29.8229 158.333 30.1458 158 30.5625C157.677 30.9688 157.411 31.4323 157.203 31.9531C156.995 32.474 156.844 33.0104 156.75 33.5625L156.438 35.75C156.385 36.3854 156.427 37.0156 156.562 37.6406C156.698 38.2552 156.964 38.7656 157.359 39.1719C157.766 39.5781 158.349 39.7917 159.109 39.8125C159.797 39.8229 160.38 39.6667 160.859 39.3438C161.339 39.0208 161.729 38.5938 162.031 38.0625C162.344 37.5208 162.583 36.9427 162.75 36.3281C162.917 35.7135 163.031 35.1302 163.094 34.5781ZM169.516 34.8125L169.562 34.4844C169.688 33.2865 169.974 32.1615 170.422 31.1094C170.88 30.0469 171.484 29.1146 172.234 28.3125C172.995 27.5 173.885 26.8698 174.906 26.4219C175.938 25.9635 177.094 25.75 178.375 25.7812C179.594 25.8021 180.646 26.0469 181.531 26.5156C182.417 26.9844 183.141 27.6146 183.703 28.4062C184.276 29.1979 184.677 30.1042 184.906 31.125C185.146 32.1458 185.214 33.224 185.109 34.3594L185.078 34.7031C184.943 35.8906 184.641 37.0104 184.172 38.0625C183.714 39.1042 183.104 40.026 182.344 40.8281C181.594 41.6198 180.703 42.2396 179.672 42.6875C178.641 43.1354 177.495 43.3438 176.234 43.3125C175.036 43.2917 173.99 43.0521 173.094 42.5938C172.198 42.125 171.469 41.5 170.906 40.7188C170.344 39.9271 169.948 39.026 169.719 38.0156C169.49 37.0052 169.422 35.9375 169.516 34.8125ZM173.953 34.4844L173.922 34.8281C173.87 35.3281 173.854 35.8646 173.875 36.4375C173.896 37 173.984 37.5365 174.141 38.0469C174.307 38.5573 174.578 38.974 174.953 39.2969C175.328 39.6198 175.844 39.7917 176.5 39.8125C177.198 39.8333 177.797 39.6927 178.297 39.3906C178.797 39.0885 179.208 38.6823 179.531 38.1719C179.854 37.651 180.109 37.0885 180.297 36.4844C180.484 35.8698 180.609 35.2708 180.672 34.6875L180.703 34.3594C180.745 33.8594 180.755 33.3229 180.734 32.75C180.724 32.1667 180.635 31.6198 180.469 31.1094C180.302 30.5885 180.031 30.1615 179.656 29.8281C179.281 29.4948 178.766 29.3177 178.109 29.2969C177.411 29.2656 176.812 29.4115 176.312 29.7344C175.812 30.0469 175.401 30.4635 175.078 30.9844C174.755 31.5052 174.5 32.0729 174.312 32.6875C174.135 33.3021 174.016 33.901 173.953 34.4844Z" fill="#4F46E5"/>
</svg>
